<svg width="230" height="80" viewBox="0 0 230 80" fill="none" xmlns="http://www.w3.org/2000/svg">
<rect width="229.167" height="80" rx="16" fill="white"/>
<rect x="0.416667" y="0.416667" width="228.333" height="79.1667" rx="15.5833" stroke="#141414" stroke-opacity="0.15" stroke-width="0.833333"/>
<g clip-path="url(#clip0_1_2533)">
<path d="M54.4897 36.5225L38.1741 36.5217C37.4536 36.5217 36.8696 37.1056 36.8696 37.8261V43.0382C36.8696 43.7585 37.4536 44.3426 38.174 44.3426H47.362C46.3559 46.9536 44.4781 49.1402 42.0823 50.5296L46 57.3116C52.2845 53.677 56 47.2997 56 40.1608C56 39.1443 55.9251 38.4177 55.7752 37.5995C55.6613 36.9778 55.1217 36.5225 54.4897 36.5225Z" fill="#167EE6"/>
<path d="M36.0001 52.1739C31.5037 52.1739 27.5784 49.7172 25.4702 46.0818L18.6885 49.9907C22.1396 55.9721 28.6048 60 36.0001 60C39.628 60 43.0512 59.0232 46.0001 57.3209V57.3116L42.0824 50.5296C40.2903 51.569 38.2166 52.1739 36.0001 52.1739Z" fill="#12B347"/>
<path d="M46 57.3209V57.3116L42.0823 50.5295C40.2902 51.5688 38.2166 52.1738 36 52.1738V59.9999C39.6279 59.9999 43.0512 59.0231 46 57.3209Z" fill="#0F993E"/>
<path d="M23.8261 40C23.8261 37.7837 24.4309 35.7101 25.4701 33.9182L18.6884 30.0093C16.9767 32.9489 16 36.3628 16 40C16 43.6372 16.9767 47.0511 18.6884 49.9907L25.4701 46.0818C24.4309 44.2898 23.8261 42.2163 23.8261 40Z" fill="#FFD500"/>
<path d="M36.0001 27.8261C38.9322 27.8261 41.6255 28.868 43.7292 30.601C44.2482 31.0285 45.0025 30.9977 45.4778 30.5223L49.1708 26.8293C49.7102 26.2899 49.6717 25.407 49.0956 24.9072C45.571 21.8495 40.985 20 36.0001 20C28.6048 20 22.1396 24.0279 18.6885 30.0093L25.4702 33.9182C27.5784 30.2828 31.5037 27.8261 36.0001 27.8261Z" fill="#FF4B26"/>
<path d="M43.7291 30.601C44.248 31.0285 45.0024 30.9977 45.4777 30.5223L49.1707 26.8293C49.71 26.2899 49.6716 25.407 49.0955 24.9072C45.5709 21.8494 40.9849 20 36 20V27.8261C38.932 27.8261 41.6254 28.868 43.7291 30.601Z" fill="#D93F21"/>
</g>
<path d="M70.9685 22.5133C70.3605 22.5133 69.8125 22.4073 69.3245 22.1953C68.8365 21.9833 68.4205 21.6813 68.0765 21.2893C67.7365 20.8973 67.4765 20.4253 67.2965 19.8733C67.1165 19.3173 67.0265 18.6973 67.0265 18.0133C67.0265 17.1093 67.1825 16.3213 67.4945 15.6493C67.8105 14.9733 68.2625 14.4493 68.8505 14.0773C69.4385 13.7053 70.1445 13.5193 70.9685 13.5193C71.8885 13.5193 72.6365 13.7353 73.2125 14.1673C73.7925 14.5953 74.1965 15.1713 74.4245 15.8953L73.5365 16.1113C73.3485 15.5833 73.0385 15.1613 72.6065 14.8453C72.1785 14.5293 71.6445 14.3713 71.0045 14.3713C70.3285 14.3673 69.7665 14.5193 69.3185 14.8273C68.8705 15.1313 68.5325 15.5593 68.3045 16.1113C68.0805 16.6593 67.9665 17.2933 67.9625 18.0133C67.9585 18.7333 68.0685 19.3673 68.2925 19.9153C68.5205 20.4593 68.8605 20.8873 69.3125 21.1993C69.7645 21.5073 70.3285 21.6633 71.0045 21.6673C71.6245 21.6673 72.1365 21.5473 72.5405 21.3073C72.9445 21.0673 73.2505 20.7233 73.4585 20.2753C73.6705 19.8273 73.7905 19.2973 73.8185 18.6853H71.8265V17.9293H74.7425C74.7545 18.0213 74.7605 18.1193 74.7605 18.2233C74.7645 18.3233 74.7665 18.3953 74.7665 18.4393C74.7665 19.2193 74.6265 19.9173 74.3465 20.5333C74.0665 21.1453 73.6445 21.6293 73.0805 21.9853C72.5205 22.3373 71.8165 22.5133 70.9685 22.5133ZM78.6734 22.5133C78.0294 22.5133 77.4794 22.3673 77.0234 22.0753C76.5674 21.7833 76.2174 21.3793 75.9734 20.8633C75.7294 20.3473 75.6074 19.7553 75.6074 19.0873C75.6074 18.4073 75.7314 17.8113 75.9794 17.2993C76.2274 16.7873 76.5794 16.3893 77.0354 16.1053C77.4954 15.8173 78.0414 15.6733 78.6734 15.6733C79.3214 15.6733 79.8734 15.8193 80.3294 16.1113C80.7894 16.3993 81.1394 16.8013 81.3794 17.3173C81.6234 17.8293 81.7454 18.4193 81.7454 19.0873C81.7454 19.7673 81.6234 20.3653 81.3794 20.8813C81.1354 21.3933 80.7834 21.7933 80.3234 22.0813C79.8634 22.3693 79.3134 22.5133 78.6734 22.5133ZM78.6734 21.6673C79.3934 21.6673 79.9294 21.4293 80.2814 20.9533C80.6334 20.4733 80.8094 19.8513 80.8094 19.0873C80.8094 18.3033 80.6314 17.6793 80.2754 17.2153C79.9234 16.7513 79.3894 16.5193 78.6734 16.5193C78.1894 16.5193 77.7894 16.6293 77.4734 16.8493C77.1614 17.0653 76.9274 17.3673 76.7714 17.7553C76.6194 18.1393 76.5434 18.5833 76.5434 19.0873C76.5434 19.8673 76.7234 20.4933 77.0834 20.9653C77.4434 21.4333 77.9734 21.6673 78.6734 21.6673ZM85.775 22.5133C85.131 22.5133 84.581 22.3673 84.125 22.0753C83.669 21.7833 83.319 21.3793 83.075 20.8633C82.831 20.3473 82.709 19.7553 82.709 19.0873C82.709 18.4073 82.833 17.8113 83.081 17.2993C83.329 16.7873 83.681 16.3893 84.137 16.1053C84.597 15.8173 85.143 15.6733 85.775 15.6733C86.423 15.6733 86.975 15.8193 87.431 16.1113C87.891 16.3993 88.241 16.8013 88.481 17.3173C88.725 17.8293 88.847 18.4193 88.847 19.0873C88.847 19.7673 88.725 20.3653 88.481 20.8813C88.237 21.3933 87.885 21.7933 87.425 22.0813C86.965 22.3693 86.415 22.5133 85.775 22.5133ZM85.775 21.6673C86.495 21.6673 87.031 21.4293 87.383 20.9533C87.735 20.4733 87.911 19.8513 87.911 19.0873C87.911 18.3033 87.733 17.6793 87.377 17.2153C87.025 16.7513 86.491 16.5193 85.775 16.5193C85.291 16.5193 84.891 16.6293 84.575 16.8493C84.263 17.0653 84.029 17.3673 83.873 17.7553C83.721 18.1393 83.645 18.5833 83.645 19.0873C83.645 19.8673 83.825 20.4933 84.185 20.9653C84.545 21.4333 85.075 21.6673 85.775 21.6673ZM92.7446 25.3933C92.4126 25.3933 92.0846 25.3433 91.7606 25.2433C91.4406 25.1473 91.1446 24.9933 90.8726 24.7813C90.6006 24.5733 90.3726 24.3013 90.1886 23.9653L90.9866 23.5213C91.1666 23.8813 91.4186 24.1393 91.7426 24.2953C92.0706 24.4553 92.4046 24.5353 92.7446 24.5353C93.2126 24.5353 93.5906 24.4473 93.8786 24.2713C94.1706 24.0993 94.3826 23.8433 94.5146 23.5033C94.6466 23.1633 94.7106 22.7393 94.7066 22.2313V20.5033H94.8086V15.8533H95.5946V22.2433C95.5946 22.4273 95.5886 22.6033 95.5766 22.7713C95.5686 22.9433 95.5506 23.1113 95.5226 23.2753C95.4466 23.7593 95.2886 24.1573 95.0486 24.4693C94.8126 24.7813 94.5006 25.0133 94.1126 25.1653C93.7286 25.3173 93.2726 25.3933 92.7446 25.3933ZM92.6846 22.5133C92.0806 22.5133 91.5646 22.3633 91.1366 22.0633C90.7086 21.7593 90.3806 21.3493 90.1526 20.8333C89.9246 20.3173 89.8106 19.7353 89.8106 19.0873C89.8106 18.4433 89.9226 17.8633 90.1466 17.3473C90.3746 16.8313 90.7006 16.4233 91.1246 16.1233C91.5486 15.8233 92.0566 15.6733 92.6486 15.6733C93.2566 15.6733 93.7686 15.8213 94.1846 16.1173C94.6006 16.4133 94.9146 16.8193 95.1266 17.3353C95.3426 17.8473 95.4506 18.4313 95.4506 19.0873C95.4506 19.7313 95.3446 20.3133 95.1326 20.8333C94.9206 21.3493 94.6086 21.7593 94.1966 22.0633C93.7846 22.3633 93.2806 22.5133 92.6846 22.5133ZM92.7746 21.6913C93.2346 21.6913 93.6146 21.5793 93.9146 21.3553C94.2146 21.1313 94.4386 20.8233 94.5866 20.4313C94.7346 20.0353 94.8086 19.5873 94.8086 19.0873C94.8086 18.5793 94.7346 18.1313 94.5866 17.7433C94.4386 17.3513 94.2146 17.0453 93.9146 16.8253C93.6186 16.6053 93.2446 16.4953 92.7926 16.4953C92.3286 16.4953 91.9446 16.6093 91.6406 16.8373C91.3366 17.0653 91.1106 17.3753 90.9626 17.7673C90.8186 18.1593 90.7466 18.5993 90.7466 19.0873C90.7466 19.5793 90.8206 20.0233 90.9686 20.4193C91.1206 20.8113 91.3466 21.1213 91.6466 21.3493C91.9466 21.5773 92.3226 21.6913 92.7746 21.6913ZM97.3921 22.3333V13.5133H98.2741V22.3333H97.3921ZM102.815 22.5133C102.183 22.5133 101.635 22.3733 101.171 22.0933C100.711 21.8133 100.353 21.4193 100.097 20.9113C99.8409 20.4033 99.7129 19.8073 99.7129 19.1233C99.7129 18.4153 99.8389 17.8033 100.091 17.2873C100.343 16.7713 100.697 16.3733 101.153 16.0933C101.613 15.8133 102.155 15.6733 102.779 15.6733C103.419 15.6733 103.965 15.8213 104.417 16.1173C104.869 16.4093 105.211 16.8293 105.443 17.3773C105.675 17.9253 105.781 18.5793 105.761 19.3393H104.861V19.0273C104.845 18.1873 104.663 17.5533 104.315 17.1253C103.971 16.6973 103.467 16.4833 102.803 16.4833C102.107 16.4833 101.573 16.7093 101.201 17.1613C100.833 17.6133 100.649 18.2573 100.649 19.0933C100.649 19.9093 100.833 20.5433 101.201 20.9953C101.573 21.4433 102.099 21.6673 102.779 21.6673C103.243 21.6673 103.647 21.5613 103.991 21.3493C104.339 21.1333 104.613 20.8233 104.813 20.4193L105.635 20.7373C105.379 21.3013 105.001 21.7393 104.501 22.0513C104.005 22.3593 103.443 22.5133 102.815 22.5133ZM100.337 19.3393V18.6013H105.287V19.3393H100.337ZM109.495 22.3333V13.6933H112.831C112.915 13.6933 113.009 13.6973 113.113 13.7053C113.221 13.7093 113.329 13.7213 113.437 13.7413C113.889 13.8093 114.271 13.9673 114.583 14.2153C114.899 14.4593 115.137 14.7673 115.297 15.1393C115.461 15.5113 115.543 15.9233 115.543 16.3753C115.543 17.0273 115.371 17.5933 115.027 18.0733C114.683 18.5533 114.191 18.8553 113.551 18.9793L113.245 19.0513H110.377V22.3333H109.495ZM114.727 22.3333L113.023 18.8173L113.869 18.4933L115.741 22.3333H114.727ZM110.377 18.2113H112.807C112.879 18.2113 112.963 18.2073 113.059 18.1993C113.155 18.1913 113.249 18.1773 113.341 18.1573C113.637 18.0933 113.879 17.9713 114.067 17.7913C114.259 17.6113 114.401 17.3973 114.493 17.1493C114.589 16.9013 114.637 16.6433 114.637 16.3753C114.637 16.1073 114.589 15.8493 114.493 15.6013C114.401 15.3493 114.259 15.1333 114.067 14.9533C113.879 14.7733 113.637 14.6513 113.341 14.5873C113.249 14.5673 113.155 14.5553 113.059 14.5513C112.963 14.5433 112.879 14.5393 112.807 14.5393H110.377V18.2113ZM119.807 22.5133C119.175 22.5133 118.627 22.3733 118.163 22.0933C117.703 21.8133 117.345 21.4193 117.089 20.9113C116.833 20.4033 116.705 19.8073 116.705 19.1233C116.705 18.4153 116.831 17.8033 117.083 17.2873C117.335 16.7713 117.689 16.3733 118.145 16.0933C118.605 15.8133 119.147 15.6733 119.771 15.6733C120.411 15.6733 120.957 15.8213 121.409 16.1173C121.861 16.4093 122.203 16.8293 122.435 17.3773C122.667 17.9253 122.773 18.5793 122.753 19.3393H121.853V19.0273C121.837 18.1873 121.655 17.5533 121.307 17.1253C120.963 16.6973 120.459 16.4833 119.795 16.4833C119.099 16.4833 118.565 16.7093 118.193 17.1613C117.825 17.6133 117.641 18.2573 117.641 19.0933C117.641 19.9093 117.825 20.5433 118.193 20.9953C118.565 21.4433 119.091 21.6673 119.771 21.6673C120.235 21.6673 120.639 21.5613 120.983 21.3493C121.331 21.1333 121.605 20.8233 121.805 20.4193L122.627 20.7373C122.371 21.3013 121.993 21.7393 121.493 22.0513C120.997 22.3593 120.435 22.5133 119.807 22.5133ZM117.329 19.3393V18.6013H122.279V19.3393H117.329ZM125.602 22.3333L123.25 15.8533H124.144L126.058 21.1813L127.96 15.8533H128.866L126.514 22.3333H125.602ZM130.064 14.6233V13.6333H130.946V14.6233H130.064ZM130.064 22.3333V15.8533H130.946V22.3333H130.064ZM135.487 22.5133C134.855 22.5133 134.307 22.3733 133.843 22.0933C133.383 21.8133 133.025 21.4193 132.769 20.9113C132.513 20.4033 132.385 19.8073 132.385 19.1233C132.385 18.4153 132.511 17.8033 132.763 17.2873C133.015 16.7713 133.369 16.3733 133.825 16.0933C134.285 15.8133 134.827 15.6733 135.451 15.6733C136.091 15.6733 136.637 15.8213 137.089 16.1173C137.541 16.4093 137.883 16.8293 138.115 17.3773C138.347 17.9253 138.453 18.5793 138.433 19.3393H137.533V19.0273C137.517 18.1873 137.335 17.5533 136.987 17.1253C136.643 16.6973 136.139 16.4833 135.475 16.4833C134.779 16.4833 134.245 16.7093 133.873 17.1613C133.505 17.6133 133.321 18.2573 133.321 19.0933C133.321 19.9093 133.505 20.5433 133.873 20.9953C134.245 21.4433 134.771 21.6673 135.451 21.6673C135.915 21.6673 136.319 21.5613 136.663 21.3493C137.011 21.1333 137.285 20.8233 137.485 20.4193L138.307 20.7373C138.051 21.3013 137.673 21.7393 137.173 22.0513C136.677 22.3593 136.115 22.5133 135.487 22.5133ZM133.009 19.3393V18.6013H137.959V19.3393H133.009ZM140.91 22.3333L138.93 15.8473L139.812 15.8533L141.348 20.8873L142.89 15.8533H143.694L145.236 20.8873L146.784 15.8533H147.66L145.68 22.3333H144.912L143.292 17.1733L141.678 22.3333H140.91Z" fill="#141414"/>
<path d="M67.5065 69V60.36H70.8425C71.3265 60.36 71.7485 60.46 72.1085 60.66C72.4685 60.86 72.7485 61.13 72.9485 61.47C73.1485 61.806 73.2485 62.178 73.2485 62.586C73.2485 63.05 73.1245 63.464 72.8765 63.828C72.6285 64.188 72.2965 64.438 71.8805 64.578L71.8685 64.284C72.4285 64.444 72.8685 64.724 73.1885 65.124C73.5085 65.524 73.6685 66.008 73.6685 66.576C73.6685 67.076 73.5625 67.508 73.3505 67.872C73.1385 68.232 72.8405 68.51 72.4565 68.706C72.0725 68.902 71.6265 69 71.1185 69H67.5065ZM68.3945 68.154H70.9025C71.2545 68.154 71.5705 68.092 71.8505 67.968C72.1305 67.84 72.3505 67.66 72.5105 67.428C72.6745 67.196 72.7565 66.916 72.7565 66.588C72.7565 66.268 72.6825 65.98 72.5345 65.724C72.3865 65.468 72.1845 65.264 71.9285 65.112C71.6765 64.956 71.3885 64.878 71.0645 64.878H68.3945V68.154ZM68.3945 64.044H70.8365C71.1125 64.044 71.3645 63.982 71.5925 63.858C71.8205 63.73 72.0005 63.556 72.1325 63.336C72.2685 63.116 72.3365 62.862 72.3365 62.574C72.3365 62.166 72.1945 61.834 71.9105 61.578C71.6305 61.322 71.2725 61.194 70.8365 61.194H68.3945V64.044ZM76.7199 69.18C76.2319 69.18 75.8219 69.092 75.4899 68.916C75.1619 68.74 74.9159 68.506 74.7519 68.214C74.5879 67.922 74.5059 67.604 74.5059 67.26C74.5059 66.908 74.5759 66.608 74.7159 66.36C74.8599 66.108 75.0539 65.902 75.2979 65.742C75.5459 65.582 75.8319 65.46 76.1559 65.376C76.4839 65.296 76.8459 65.226 77.2419 65.166C77.6419 65.102 78.0319 65.048 78.4119 65.004C78.7959 64.956 79.1319 64.91 79.4199 64.866L79.1079 65.058C79.1199 64.418 78.9959 63.944 78.7359 63.636C78.4759 63.328 78.0239 63.174 77.3799 63.174C76.9359 63.174 76.5599 63.274 76.2519 63.474C75.9479 63.674 75.7339 63.99 75.6099 64.422L74.7519 64.17C74.8999 63.59 75.1979 63.14 75.6459 62.82C76.0939 62.5 76.6759 62.34 77.3919 62.34C77.9839 62.34 78.4859 62.452 78.8979 62.676C79.3139 62.896 79.6079 63.216 79.7799 63.636C79.8599 63.824 79.9119 64.034 79.9359 64.266C79.9599 64.498 79.9719 64.734 79.9719 64.974V69H79.1859V67.374L79.4139 67.47C79.1939 68.026 78.8519 68.45 78.3879 68.742C77.9239 69.034 77.3679 69.18 76.7199 69.18ZM76.8219 68.418C77.2339 68.418 77.5939 68.344 77.9019 68.196C78.2099 68.048 78.4579 67.846 78.6459 67.59C78.8339 67.33 78.9559 67.038 79.0119 66.714C79.0599 66.506 79.0859 66.278 79.0899 66.03C79.0939 65.778 79.0959 65.59 79.0959 65.466L79.4319 65.64C79.1319 65.68 78.8059 65.72 78.4539 65.76C78.1059 65.8 77.7619 65.846 77.4219 65.898C77.0859 65.95 76.7819 66.012 76.5099 66.084C76.3259 66.136 76.1479 66.21 75.9759 66.306C75.8039 66.398 75.6619 66.522 75.5499 66.678C75.4419 66.834 75.3879 67.028 75.3879 67.26C75.3879 67.448 75.4339 67.63 75.5259 67.806C75.6219 67.982 75.7739 68.128 75.9819 68.244C76.1939 68.36 76.4739 68.418 76.8219 68.418ZM83.9518 69.174C83.1918 69.174 82.5658 69.01 82.0738 68.682C81.5858 68.354 81.2858 67.898 81.1738 67.314L82.0738 67.164C82.1698 67.532 82.3878 67.826 82.7278 68.046C83.0718 68.262 83.4958 68.37 83.9998 68.37C84.4918 68.37 84.8798 68.268 85.1638 68.064C85.4478 67.856 85.5898 67.574 85.5898 67.218C85.5898 67.018 85.5438 66.856 85.4518 66.732C85.3638 66.604 85.1818 66.486 84.9058 66.378C84.6298 66.27 84.2178 66.142 83.6698 65.994C83.0818 65.834 82.6218 65.674 82.2898 65.514C81.9578 65.354 81.7218 65.17 81.5818 64.962C81.4418 64.75 81.3718 64.492 81.3718 64.188C81.3718 63.82 81.4758 63.498 81.6838 63.222C81.8918 62.942 82.1798 62.726 82.5478 62.574C82.9158 62.418 83.3438 62.34 83.8318 62.34C84.3198 62.34 84.7558 62.42 85.1398 62.58C85.5278 62.736 85.8398 62.956 86.0758 63.24C86.3118 63.524 86.4518 63.854 86.4958 64.23L85.5958 64.392C85.5358 64.012 85.3458 63.712 85.0258 63.492C84.7098 63.268 84.3078 63.152 83.8198 63.144C83.3598 63.132 82.9858 63.22 82.6978 63.408C82.4098 63.592 82.2658 63.838 82.2658 64.146C82.2658 64.318 82.3178 64.466 82.4218 64.59C82.5258 64.71 82.7138 64.824 82.9858 64.932C83.2618 65.04 83.6538 65.158 84.1618 65.286C84.7578 65.438 85.2258 65.598 85.5658 65.766C85.9058 65.934 86.1478 66.132 86.2918 66.36C86.4358 66.588 86.5078 66.87 86.5078 67.206C86.5078 67.818 86.2798 68.3 85.8238 68.652C85.3718 69 84.7478 69.174 83.9518 69.174ZM90.5805 69.18C89.9485 69.18 89.4005 69.04 88.9365 68.76C88.4765 68.48 88.1185 68.086 87.8625 67.578C87.6065 67.07 87.4785 66.474 87.4785 65.79C87.4785 65.082 87.6045 64.47 87.8565 63.954C88.1085 63.438 88.4625 63.04 88.9185 62.76C89.3785 62.48 89.9205 62.34 90.5445 62.34C91.1845 62.34 91.7305 62.488 92.1825 62.784C92.6345 63.076 92.9765 63.496 93.2085 64.044C93.4405 64.592 93.5465 65.246 93.5265 66.006H92.6265V65.694C92.6105 64.854 92.4285 64.22 92.0805 63.792C91.7365 63.364 91.2325 63.15 90.5685 63.15C89.8725 63.15 89.3385 63.376 88.9665 63.828C88.5985 64.28 88.4145 64.924 88.4145 65.76C88.4145 66.576 88.5985 67.21 88.9665 67.662C89.3385 68.11 89.8645 68.334 90.5445 68.334C91.0085 68.334 91.4125 68.228 91.7565 68.016C92.1045 67.8 92.3785 67.49 92.5785 67.086L93.4005 67.404C93.1445 67.968 92.7665 68.406 92.2665 68.718C91.7705 69.026 91.2085 69.18 90.5805 69.18ZM88.1025 66.006V65.268H93.0525V66.006H88.1025ZM97.3721 69.18C96.7681 69.18 96.2521 69.03 95.8241 68.73C95.3961 68.426 95.0681 68.016 94.8401 67.5C94.6121 66.984 94.4981 66.402 94.4981 65.754C94.4981 65.11 94.6101 64.53 94.8341 64.014C95.0621 63.498 95.3881 63.09 95.8121 62.79C96.2361 62.49 96.7441 62.34 97.3361 62.34C97.9441 62.34 98.4561 62.488 98.8721 62.784C99.2881 63.08 99.6021 63.486 99.8141 64.002C100.03 64.514 100.138 65.098 100.138 65.754C100.138 66.398 100.032 66.98 99.8201 67.5C99.6081 68.016 99.2961 68.426 98.8841 68.73C98.4721 69.03 97.9681 69.18 97.3721 69.18ZM97.4621 68.358C97.9221 68.358 98.3021 68.246 98.6021 68.022C98.9021 67.798 99.1261 67.49 99.2741 67.098C99.4221 66.702 99.4961 66.254 99.4961 65.754C99.4961 65.246 99.4221 64.798 99.2741 64.41C99.1261 64.018 98.9021 63.712 98.6021 63.492C98.3061 63.272 97.9321 63.162 97.4801 63.162C97.0161 63.162 96.6321 63.276 96.3281 63.504C96.0241 63.732 95.7981 64.042 95.6501 64.434C95.5061 64.826 95.4341 65.266 95.4341 65.754C95.4341 66.246 95.5081 66.69 95.6561 67.086C95.8081 67.478 96.0341 67.788 96.3341 68.016C96.6341 68.244 97.0101 68.358 97.4621 68.358ZM99.4961 69V64.122H99.4001V60.36H100.288V69H99.4961ZM107.08 69.18C106.436 69.18 105.886 69.034 105.43 68.742C104.974 68.45 104.624 68.046 104.38 67.53C104.136 67.014 104.014 66.422 104.014 65.754C104.014 65.074 104.138 64.478 104.386 63.966C104.634 63.454 104.986 63.056 105.442 62.772C105.902 62.484 106.448 62.34 107.08 62.34C107.728 62.34 108.28 62.486 108.736 62.778C109.196 63.066 109.546 63.468 109.786 63.984C110.03 64.496 110.152 65.086 110.152 65.754C110.152 66.434 110.03 67.032 109.786 67.548C109.542 68.06 109.19 68.46 108.73 68.748C108.27 69.036 107.72 69.18 107.08 69.18ZM107.08 68.334C107.8 68.334 108.336 68.096 108.688 67.62C109.04 67.14 109.216 66.518 109.216 65.754C109.216 64.97 109.038 64.346 108.682 63.882C108.33 63.418 107.796 63.186 107.08 63.186C106.596 63.186 106.196 63.296 105.88 63.516C105.568 63.732 105.334 64.034 105.178 64.422C105.026 64.806 104.95 65.25 104.95 65.754C104.95 66.534 105.13 67.16 105.49 67.632C105.85 68.1 106.38 68.334 107.08 68.334ZM116.155 69V65.694C116.155 65.334 116.121 65.004 116.053 64.704C115.985 64.4 115.875 64.136 115.723 63.912C115.575 63.684 115.381 63.508 115.141 63.384C114.905 63.26 114.617 63.198 114.277 63.198C113.965 63.198 113.689 63.252 113.449 63.36C113.213 63.468 113.013 63.624 112.849 63.828C112.689 64.028 112.567 64.272 112.483 64.56C112.399 64.848 112.357 65.176 112.357 65.544L111.733 65.406C111.733 64.742 111.849 64.184 112.081 63.732C112.313 63.28 112.633 62.938 113.041 62.706C113.449 62.474 113.917 62.358 114.445 62.358C114.833 62.358 115.171 62.418 115.459 62.538C115.751 62.658 115.997 62.82 116.197 63.024C116.401 63.228 116.565 63.462 116.689 63.726C116.813 63.986 116.903 64.264 116.959 64.56C117.015 64.852 117.043 65.144 117.043 65.436V69H116.155ZM111.469 69V62.52H112.267V64.116H112.357V69H111.469ZM122.509 69V61.344L120.883 62.322V61.332L122.509 60.36H123.403V69H122.509ZM129.482 69V67.326H125.438V66.486L128.33 60.36H129.32L126.428 66.486H129.482V63.966H130.37V66.486H131.312V67.326H130.37V69H129.482ZM135.307 69.18C134.859 69.18 134.445 69.088 134.065 68.904C133.685 68.72 133.361 68.466 133.093 68.142C132.825 67.818 132.633 67.446 132.517 67.026L133.363 66.798C133.439 67.11 133.577 67.38 133.777 67.608C133.977 67.832 134.211 68.006 134.479 68.13C134.751 68.254 135.035 68.316 135.331 68.316C135.715 68.316 136.059 68.224 136.363 68.04C136.671 67.852 136.915 67.604 137.095 67.296C137.275 66.988 137.365 66.65 137.365 66.282C137.365 65.902 137.271 65.56 137.083 65.256C136.895 64.948 136.647 64.704 136.339 64.524C136.031 64.344 135.695 64.254 135.331 64.254C134.923 64.254 134.571 64.344 134.275 64.524C133.979 64.7 133.743 64.922 133.567 65.19L132.763 64.854L133.027 60.36H137.641V61.206H133.417L133.855 60.792L133.621 64.626L133.399 64.332C133.647 64.048 133.947 63.826 134.299 63.666C134.651 63.506 135.021 63.426 135.409 63.426C135.941 63.426 136.421 63.554 136.849 63.81C137.277 64.062 137.617 64.404 137.869 64.836C138.121 65.268 138.247 65.75 138.247 66.282C138.247 66.81 138.113 67.294 137.845 67.734C137.577 68.17 137.221 68.52 136.777 68.784C136.333 69.048 135.843 69.18 135.307 69.18ZM142.085 69V62.52H142.877V64.08L142.721 63.876C142.793 63.684 142.887 63.508 143.003 63.348C143.119 63.184 143.245 63.05 143.381 62.946C143.549 62.798 143.745 62.686 143.969 62.61C144.193 62.53 144.419 62.484 144.647 62.472C144.875 62.456 145.083 62.472 145.271 62.52V63.348C145.035 63.288 144.777 63.274 144.497 63.306C144.217 63.338 143.959 63.45 143.723 63.642C143.507 63.81 143.345 64.012 143.237 64.248C143.129 64.48 143.057 64.728 143.021 64.992C142.985 65.252 142.967 65.51 142.967 65.766V69H142.085ZM149.034 69.18C148.402 69.18 147.854 69.04 147.39 68.76C146.93 68.48 146.572 68.086 146.316 67.578C146.06 67.07 145.932 66.474 145.932 65.79C145.932 65.082 146.058 64.47 146.31 63.954C146.562 63.438 146.916 63.04 147.372 62.76C147.832 62.48 148.374 62.34 148.998 62.34C149.638 62.34 150.184 62.488 150.636 62.784C151.088 63.076 151.43 63.496 151.662 64.044C151.894 64.592 152 65.246 151.98 66.006H151.08V65.694C151.064 64.854 150.882 64.22 150.534 63.792C150.19 63.364 149.686 63.15 149.022 63.15C148.326 63.15 147.792 63.376 147.42 63.828C147.052 64.28 146.868 64.924 146.868 65.76C146.868 66.576 147.052 67.21 147.42 67.662C147.792 68.11 148.318 68.334 148.998 68.334C149.462 68.334 149.866 68.228 150.21 68.016C150.558 67.8 150.832 67.49 151.032 67.086L151.854 67.404C151.598 67.968 151.22 68.406 150.72 68.718C150.224 69.026 149.662 69.18 149.034 69.18ZM146.556 66.006V65.268H151.506V66.006H146.556ZM154.829 69L152.477 62.52H153.371L155.285 67.848L157.187 62.52H158.093L155.741 69H154.829ZM159.291 61.29V60.3H160.173V61.29H159.291ZM159.291 69V62.52H160.173V69H159.291ZM164.713 69.18C164.081 69.18 163.533 69.04 163.069 68.76C162.609 68.48 162.251 68.086 161.995 67.578C161.739 67.07 161.611 66.474 161.611 65.79C161.611 65.082 161.737 64.47 161.989 63.954C162.241 63.438 162.595 63.04 163.051 62.76C163.511 62.48 164.053 62.34 164.677 62.34C165.317 62.34 165.863 62.488 166.315 62.784C166.767 63.076 167.109 63.496 167.341 64.044C167.573 64.592 167.679 65.246 167.659 66.006H166.759V65.694C166.743 64.854 166.561 64.22 166.213 63.792C165.869 63.364 165.365 63.15 164.701 63.15C164.005 63.15 163.471 63.376 163.099 63.828C162.731 64.28 162.547 64.924 162.547 65.76C162.547 66.576 162.731 67.21 163.099 67.662C163.471 68.11 163.997 68.334 164.677 68.334C165.141 68.334 165.545 68.228 165.889 68.016C166.237 67.8 166.511 67.49 166.711 67.086L167.533 67.404C167.277 67.968 166.899 68.406 166.399 68.718C165.903 69.026 165.341 69.18 164.713 69.18ZM162.235 66.006V65.268H167.185V66.006H162.235ZM170.137 69L168.157 62.514L169.039 62.52L170.575 67.554L172.117 62.52H172.921L174.463 67.554L176.011 62.52H176.887L174.907 69H174.139L172.519 63.84L170.905 69H170.137ZM180.151 69.174C179.391 69.174 178.765 69.01 178.273 68.682C177.785 68.354 177.485 67.898 177.373 67.314L178.273 67.164C178.369 67.532 178.587 67.826 178.927 68.046C179.271 68.262 179.695 68.37 180.199 68.37C180.691 68.37 181.079 68.268 181.363 68.064C181.647 67.856 181.789 67.574 181.789 67.218C181.789 67.018 181.743 66.856 181.651 66.732C181.563 66.604 181.381 66.486 181.105 66.378C180.829 66.27 180.417 66.142 179.869 65.994C179.281 65.834 178.821 65.674 178.489 65.514C178.157 65.354 177.921 65.17 177.781 64.962C177.641 64.75 177.571 64.492 177.571 64.188C177.571 63.82 177.675 63.498 177.883 63.222C178.091 62.942 178.379 62.726 178.747 62.574C179.115 62.418 179.543 62.34 180.031 62.34C180.519 62.34 180.955 62.42 181.339 62.58C181.727 62.736 182.039 62.956 182.275 63.24C182.511 63.524 182.651 63.854 182.695 64.23L181.795 64.392C181.735 64.012 181.545 63.712 181.225 63.492C180.909 63.268 180.507 63.152 180.019 63.144C179.559 63.132 179.185 63.22 178.897 63.408C178.609 63.592 178.465 63.838 178.465 64.146C178.465 64.318 178.517 64.466 178.621 64.59C178.725 64.71 178.913 64.824 179.185 64.932C179.461 65.04 179.853 65.158 180.361 65.286C180.957 65.438 181.425 65.598 181.765 65.766C182.105 65.934 182.347 66.132 182.491 66.36C182.635 66.588 182.707 66.87 182.707 67.206C182.707 67.818 182.479 68.3 182.023 68.652C181.571 69 180.947 69.174 180.151 69.174Z" fill="#141414"/>
<path d="M74.4065 49V46.21H67.6665V44.81L72.4865 34.6H74.1365L69.3165 44.81H74.4065V40.61H75.8865V44.81H77.4565V46.21H75.8865V49H74.4065ZM79.7528 49V47.29H81.4628V49H79.7528ZM89.4209 49.3C88.5209 49.3 87.7009 49.0833 86.9609 48.65C86.2275 48.21 85.6409 47.6167 85.2009 46.87C84.7675 46.1167 84.5509 45.27 84.5509 44.33V39.34C84.5509 38.3733 84.7675 37.5133 85.2009 36.76C85.6342 36 86.2242 35.4033 86.9709 34.97C87.7242 34.53 88.5775 34.31 89.5309 34.31C90.3509 34.31 91.1109 34.49 91.8109 34.85C92.5175 35.21 93.0942 35.7133 93.5409 36.36L92.4109 37.29C92.1042 36.81 91.6975 36.4267 91.1909 36.14C90.6842 35.8533 90.1309 35.71 89.5309 35.71C88.8575 35.71 88.2575 35.8733 87.7309 36.2C87.2042 36.5267 86.7909 36.9567 86.4909 37.49C86.1909 38.0167 86.0409 38.59 86.0409 39.21V42.35L85.6709 41.93C86.0909 41.27 86.6409 40.7367 87.3209 40.33C88.0075 39.9233 88.7542 39.72 89.5609 39.72C90.4542 39.72 91.2575 39.9333 91.9709 40.36C92.6842 40.78 93.2509 41.35 93.6709 42.07C94.0909 42.79 94.3009 43.5967 94.3009 44.49C94.3009 45.3767 94.0775 46.1833 93.6309 46.91C93.1909 47.6367 92.6009 48.2167 91.8609 48.65C91.1275 49.0833 90.3142 49.3 89.4209 49.3ZM89.4209 47.87C90.0475 47.87 90.6175 47.72 91.1309 47.42C91.6509 47.12 92.0609 46.7133 92.3609 46.2C92.6675 45.6867 92.8209 45.1167 92.8209 44.49C92.8209 43.8633 92.6675 43.2933 92.3609 42.78C92.0609 42.26 91.6542 41.85 91.1409 41.55C90.6275 41.2433 90.0575 41.09 89.4309 41.09C88.8042 41.09 88.2342 41.2433 87.7209 41.55C87.2075 41.85 86.7975 42.26 86.4909 42.78C86.1909 43.2933 86.0409 43.8633 86.0409 44.49C86.0409 45.11 86.1909 45.6767 86.4909 46.19C86.7909 46.7033 87.1975 47.1133 87.7109 47.42C88.2242 47.72 88.7942 47.87 89.4209 47.87Z" fill="#141414"/>
<path d="M107.541 34.9392C107.79 34.1715 108.876 34.1715 109.126 34.9392L110.017 37.6824C110.129 38.0257 110.449 38.2582 110.81 38.2582H113.694C114.501 38.2582 114.837 39.2912 114.184 39.7657L111.85 41.4611C111.558 41.6733 111.436 42.0494 111.548 42.3928L112.439 45.1359C112.688 45.9037 111.81 46.5421 111.157 46.0676L108.823 44.3723C108.531 44.1601 108.136 44.1601 107.844 44.3723L105.51 46.0676C104.857 46.5421 103.978 45.9037 104.228 45.1359L105.119 42.3928C105.231 42.0494 105.108 41.6733 104.816 41.4611L102.483 39.7657C101.83 39.2912 102.165 38.2582 102.973 38.2582H105.857C106.218 38.2582 106.538 38.0257 106.649 37.6824L107.541 34.9392Z" fill="#FCB547"/>
<path d="M124.208 34.9392C124.457 34.1715 125.543 34.1715 125.793 34.9392L126.684 37.6824C126.796 38.0257 127.116 38.2582 127.477 38.2582H130.361C131.168 38.2582 131.504 39.2912 130.851 39.7657L128.517 41.4611C128.225 41.6733 128.103 42.0494 128.215 42.3928L129.106 45.1359C129.355 45.9037 128.477 46.5421 127.824 46.0676L125.49 44.3723C125.198 44.1601 124.803 44.1601 124.511 44.3723L122.177 46.0676C121.524 46.5421 120.645 45.9037 120.895 45.1359L121.786 42.3928C121.898 42.0494 121.775 41.6733 121.483 41.4611L119.15 39.7657C118.497 39.2912 118.832 38.2582 119.64 38.2582H122.524C122.885 38.2582 123.205 38.0257 123.316 37.6824L124.208 34.9392Z" fill="#FCB547"/>
<path d="M140.874 34.9392C141.124 34.1715 142.21 34.1715 142.459 34.9392L143.351 37.6824C143.462 38.0257 143.782 38.2582 144.143 38.2582H147.028C147.835 38.2582 148.17 39.2912 147.517 39.7657L145.184 41.4611C144.892 41.6733 144.77 42.0494 144.881 42.3928L145.772 45.1359C146.022 45.9037 145.143 46.5421 144.49 46.0676L142.157 44.3723C141.865 44.1601 141.469 44.1601 141.177 44.3723L138.844 46.0676C138.19 46.5421 137.312 45.9037 137.561 45.1359L138.452 42.3928C138.564 42.0494 138.442 41.6733 138.15 41.4611L135.816 39.7657C135.163 39.2912 135.499 38.2582 136.306 38.2582H139.19C139.551 38.2582 139.871 38.0257 139.983 37.6824L140.874 34.9392Z" fill="#FCB547"/>
<path d="M157.541 34.9392C157.79 34.1715 158.876 34.1715 159.126 34.9392L160.017 37.6824C160.129 38.0257 160.449 38.2582 160.81 38.2582H163.694C164.501 38.2582 164.837 39.2912 164.184 39.7657L161.85 41.4611C161.558 41.6733 161.436 42.0494 161.548 42.3928L162.439 45.1359C162.688 45.9037 161.81 46.5421 161.157 46.0676L158.823 44.3723C158.531 44.1601 158.136 44.1601 157.844 44.3723L155.51 46.0676C154.857 46.5421 153.978 45.9037 154.228 45.1359L155.119 42.3928C155.231 42.0494 155.108 41.6733 154.816 41.4611L152.483 39.7657C151.83 39.2912 152.165 38.2582 152.973 38.2582H155.857C156.218 38.2582 156.538 38.0257 156.649 37.6824L157.541 34.9392Z" fill="#FCB547"/>
<path d="M174.207 34.9392C174.457 34.1715 175.543 34.1715 175.792 34.9392L176.684 37.6824C176.795 38.0257 177.115 38.2582 177.476 38.2582H180.361C181.168 38.2582 181.503 39.2912 180.85 39.7657L178.517 41.4611C178.225 41.6733 178.103 42.0494 178.214 42.3928L179.105 45.1359C179.355 45.9037 178.476 46.5421 177.823 46.0676L175.49 44.3723C175.198 44.1601 174.802 44.1601 174.51 44.3723L172.177 46.0676C171.523 46.5421 170.645 45.9037 170.894 45.1359L171.785 42.3928C171.897 42.0494 171.775 41.6733 171.483 41.4611L169.149 39.7657C168.496 39.2912 168.832 38.2582 169.639 38.2582H172.523C172.884 38.2582 173.204 38.0257 173.316 37.6824L174.207 34.9392Z" fill="#FCB547"/>
<defs>
<clipPath id="clip0_1_2533">
<rect width="40" height="40" fill="white" transform="translate(16 20)"/>
</clipPath>
</defs>
</svg>
